<?xml version="1.0" encoding="UTF-8" standalone="no"?>
<svg
   xmlns:dc="http://purl.org/dc/elements/1.1/"
   xmlns:cc="http://creativecommons.org/ns#"
   xmlns:rdf="http://www.w3.org/1999/02/22-rdf-syntax-ns#"
   xmlns:svg="http://www.w3.org/2000/svg"
   xmlns="http://www.w3.org/2000/svg"
   xmlns:xlink="http://www.w3.org/1999/xlink"
   width="900"
   height="150"
   viewBox="0 0 210 297"
   version="1.1"
   id="svg8">
  <defs
     id="defs2" />
  <metadata
     id="metadata5">
    <rdf:RDF>
      <cc:Work
         rdf:about="">
        <dc:format>image/svg+xml</dc:format>
        <dc:type
           rdf:resource="http://purl.org/dc/dcmitype/StillImage" />
        <dc:title></dc:title>
      </cc:Work>
    </rdf:RDF>
  </metadata>
  <g
     id="layer1">
    <path
       style="font-style:normal;font-variant:normal;font-weight:normal;font-stretch:normal;font-size:50.8px;line-height:1.25;font-family:'Berlin Sans FB Demi';-inkscape-font-specification:'Berlin Sans FB Demi';fill:#1a1a1a;fill-opacity:1;stroke:none;stroke-width:0.999999"
       xlink:href="#path14"
       id="path52"
       d="m 218.26953,80.605469 a 7.2441726,7.2441726 0 0 0 -0.83203,0.04883 l -4.49023,0.519531 a 7.2441726,7.2441726 0 0 0 -0.26954,0.03516 c 1.41399,-0.217586 -0.19124,-0.0046 -1.45703,0.04687 -1.311,0.04379 -2.45639,0.09917 -4.02539,0.554688 a 7.2441726,7.2441726 0 0 0 -0.27148,0.08594 c -1.15755,0.385835 -2.68725,1.245106 -3.79102,2.722657 -1.10377,1.47755 -1.5332,3.322835 -1.5332,4.644531 0,1.297457 0.15507,1.645832 0.25977,2.099609 l -0.0313,-0.142578 c 0.0545,0.259902 0.0931,0.837215 0.14454,1.25 -8.1e-4,3.9e-5 -0.001,-3.9e-5 -0.002,0 -1.31502,0.06338 -2.29005,0.08984 -2.75195,0.08984 -1.59098,0 -3.16276,0.726589 -4.53906,1.630859 -1.28107,-0.907913 -2.81017,-1.679687 -4.66211,-1.679687 -0.48097,0 -1.42683,-0.02063 -2.70117,-0.06836 h -0.004 c -1.34402,-0.05102 -2.37027,-0.08203 -3.22461,-0.08203 -1.03006,0 -2.55177,0.247214 -4.22266,1.230469 -2.89096,-1.759684 -6.23279,-2.816406 -9.59375,-2.816406 -2.85386,0 -5.70428,0.648535 -8.3125,1.814453 -0.26079,-2.959347 -1.84134,-6.109137 -4.05078,-7.925782 -2.19481,-1.807351 -5.20795,-2.818359 -7.95117,-2.818359 -2.70899,0 -5.71281,0.945337 -7.94531,2.746094 -0.74038,0.597081 -1.38582,1.37176 -1.97266,2.210937 -0.41328,-0.349422 -0.72641,-0.805369 -1.16797,-1.121093 l -0.004,-0.002 c -3.62518,-2.595916 -7.94077,-3.812486 -12.68555,-4.292969 a 7.2441726,7.2441726 0 0 0 -0.0176,-0.002 C 123.86662,81.157545 120.71781,81.125 115.55273,81.125 c -2.79954,0 -4.80993,0.04555 -6.58984,0.246094 a 7.2441726,7.2441726 0 0 0 -0.17969,0.02148 c -1.08521,0.149696 -2.63323,0.476608 -4.27539,1.890625 -1.64215,1.414017 -2.69726,4.067542 -2.69726,5.904297 0,2.05171 0.0694,4.938825 0.20312,8.785156 a 7.2441726,7.2441726 0 0 0 0,0.0332 c 0.14704,3.741001 0.21875,6.538751 0.21875,8.248051 0,1.61786 -0.0718,4.30854 -0.21875,7.91601 a 7.2441726,7.2441726 0 0 0 0,0.0312 c -0.13393,3.68337 -0.20312,6.4577 -0.20312,8.44922 0,1.70867 0.95676,4.54349 2.91992,6.10156 1.96316,1.55807 3.84671,1.71289 5.04297,1.71289 0.66356,0 1.84266,0.0219 3.42578,0.0703 a 7.2441726,7.2441726 0 0 0 0.002,0 c 1.67387,0.0507 2.93362,0.0781 3.89063,0.0781 4.33362,0 6.82467,-0.009 8.16211,-0.0547 4.97261,-0.16649 9.78017,-1.72417 13.625,-4.58203 0.0438,0.0898 0.014,0.0673 0.0625,0.16406 a 7.2441726,7.2441726 0 0 0 0.14453,0.2754 c 2.05502,3.69855 4.50029,3.71228 5.70703,3.93164 a 7.2441726,7.2441726 0 0 0 0.0371,0.006 c 2.00178,0.35319 2.97392,0.25976 5.07812,0.25976 2.06437,0 3.05248,0.0811 4.9961,-0.25586 1.18808,-0.19644 2.88451,-0.71125 4.39843,-2.23242 0.0613,-0.0616 0.078,-0.15458 0.13672,-0.21875 3.43459,2.17584 7.54193,3.27734 11.67578,3.27734 3.20743,0 6.36846,-0.61365 9.22657,-1.85547 0.84867,0.41697 1.69826,0.81374 2.29297,0.94532 1.64844,0.36471 2.931,0.38867 4.5039,0.38867 1.46616,0 2.62965,-0.009 4.26563,-0.37305 1.03709,-0.22546 2.1343,-0.77877 3.16406,-1.49414 0.62538,0.51883 1.14588,1.14096 3.70117,1.56836 1.36459,0.23094 2.67715,0.29883 4.09961,0.29883 1.37869,0 2.73548,-0.0821 4.07422,-0.26367 a 7.2441726,7.2441726 0 0 0 0.11328,-0.0156 c 0.43597,-0.0661 0.97265,-0.19818 1.52734,-0.375 0.28118,0.0861 0.60041,0.22783 0.84961,0.28321 1.73924,0.38652 2.9107,0.37109 4.49805,0.37109 2.42917,0 3.31435,0.0904 5.24219,-0.1582 0.93705,-0.12083 2.06036,-0.57663 3.14453,-1.22266 0.93454,0.54551 1.89357,0.91297 2.70703,1.0625 1.80427,0.3341 3.12008,0.31836 5.10547,0.31836 1.96599,0 2.92774,0.0445 4.51953,-0.1543 a 7.2441726,7.2441726 0 0 0 0.125,-0.0176 c 1.40112,-0.20002 3.14325,-1.15353 4.48633,-2.46093 3.16982,1.89967 6.87692,2.93164 10.58789,2.93164 3.81239,0 7.63079,-1.05311 10.85351,-3.04102 0.0464,0.0494 0.0555,0.1199 0.10352,0.16797 1.6373,1.6373 3.55511,2.16545 4.86524,2.32422 a 7.2441726,7.2441726 0 0 0 0.11328,0.0117 c 1.36054,0.14319 2.80501,0.18945 4.52734,0.18945 1.73594,0 3.04654,-0.0249 4.24805,-0.125 a 7.2441726,7.2441726 0 0 0 0.0547,-0.006 c 1.14109,-0.10371 2.78258,-0.36782 4.54688,-1.8125 1.18363,-0.9692 1.901,-2.485 2.35351,-3.9707 0.30862,0.34145 0.55239,0.73579 0.88868,1.05273 3.83737,3.64347 9.16298,5.43164 14.5,5.43164 5.47701,0 10.94629,-1.53419 14.6914,-5.54882 0.29892,-0.31892 0.62048,-0.66549 1.04688,-1.31641 0.42887,-0.6547 1.27929,-1.53391 1.2793,-4.19922 0,-2.62113 -0.53936,-3.05617 -0.89258,-3.88281 -0.054,-0.12633 -0.13144,-0.25458 -0.1875,-0.37891 0.14794,-0.20724 0.41292,-0.36328 0.5332,-0.57617 1.16262,-2.05776 1.33984,-3.91868 1.33984,-5.5293 0,-4.86849 -1.9708,-9.75177 -5.33593,-13.267575 -3.41051,-3.563231 -8.3828,-5.708984 -13.31836,-5.708984 -3.56477,0 -7.11015,1.032469 -10.18164,2.832031 -0.44726,-0.36565 -0.89589,-0.695083 -1.28516,-0.861328 -1.83895,-0.785359 -2.91038,-0.730469 -3.88672,-0.730469 -1.37793,0 -2.71442,0.226049 -4.00586,0.576172 -1.08558,-0.607792 -2.3209,-1.097656 -3.63476,-1.097656 -1.88545,0 -1.11491,0.08498 -1.24219,0.105468 -0.12729,0.02049 -0.22278,0.03633 -0.33594,0.05664 -0.22632,0.04063 -0.4996,0.09155 -0.84961,0.158203 -0.65184,0.124121 -1.6206,0.313222 -2.80273,0.544922 -1.62783,0.244529 -2.88978,0.415603 -3.5918,0.492187 a 7.2441726,7.2441726 0 0 0 -1.50586,0.330079 c -0.60371,0.201285 -1.30502,0.547834 -1.99805,1.027343 -3.23135,-2.00234 -7.06427,-3.0625 -10.89062,-3.0625 -4.49022,0 -8.96036,1.486712 -12.46289,4.244141 -0.25948,-0.24411 -0.47545,-0.543624 -0.75391,-0.759766 -2.79893,-2.177615 -6.37827,-3.185546 -9.75195,-3.185547 -0.20788,0 -0.40462,0.06165 -0.61133,0.07031 0.0104,-0.211813 0.006,-0.198957 0.0215,-0.462891 l 0.004,-0.07422 c 0.0697,-0.971599 0.11524,-1.797511 0.11524,-2.609375 0,-1.090782 -0.10213,-2.844454 -1.58594,-4.78711 -1.48381,-1.942655 -4.35035,-2.976562 -6.05469,-2.976562 z M -6.9570312,80.876953 c -3.8496028,0.262895 -1.0883871,0.06284 -3.8164068,0.271485 -3.933678,0.308841 -6.693849,0.449218 -7.667968,0.449218 -5.081568,0 -8.866488,-0.190953 -10.949219,-0.460937 a 7.2441726,7.2441726 0 0 0 -0.330078,-0.03516 c -0.218451,-0.01821 0.376074,-0.05078 -0.949219,-0.05078 -2.737505,0 -5.028844,1.771147 -5.925781,2.931641 -0.896937,1.160493 -1.131145,1.942665 -1.332031,2.570312 -0.401773,1.255294 -0.467641,2.038891 -0.550782,2.929688 a 7.2441726,7.2441726 0 0 0 -0.0039,0.05859 c -0.05856,0.688035 -0.107768,1.378688 -0.154297,2.068359 0.07373,-0.576183 -0.06923,0.317302 -0.310547,1.373047 a 7.2441726,7.2441726 0 0 0 -0.01563,0.06445 c -0.127442,0.582593 -0.229163,1.071668 -0.3125,1.533203 -0.08334,0.461535 -0.201172,0.535746 -0.201171,1.925781 -10e-7,2.00856 1.591734,5.131741 3.5,6.326171 1.908265,1.19443 3.253809,1.16602 4.140624,1.16602 0.232539,0 0.60459,-0.0492 0.845704,-0.0527 0.0016,0.16395 0.02148,0.82861 0.02148,0.94531 0,1.74671 -0.07703,4.621 -0.240234,8.47266 -0.167527,3.95365 -0.25586,6.93197 -0.25586,9.08789 0,1.50849 0.569201,3.73452 2.033203,5.36133 1.464003,1.62681 3.326026,2.30603 4.63086,2.53906 a 7.2441726,7.2441726 0 0 0 0.171875,0.0293 c 1.756421,0.27021 3.311498,0.28125 5.591797,0.28125 2.074089,0 3.704283,-0.0498 5.302734,-0.26172 0.261951,-0.0318 0.502095,-0.0596 0.832031,-0.11914 0.179715,-0.0324 0.377707,-0.0687 0.720703,-0.16016 0.296515,-0.0791 0.828017,-0.20759 1.917969,-0.86132 1.6353289,-0.9982 2.7775463,-2.60671 3.2363282,-3.83008 0.1325954,-0.35358 0.069064,-0.50625 0.1425782,-0.8086 0.3293631,0.36873 0.5937613,0.79033 0.9550781,1.13086 3.8373679,3.64348 9.1629811,5.43164 14.5,5.43164 4.5579985,0 9.0511375,-1.15799 12.6093755,-3.82812 3.055508,2.30185 6.864534,3.67969 10.658203,3.67969 1.632224,0 3.203663,-0.38456 4.714843,-0.92774 0.874956,0.34941 1.83955,0.58008 2.775391,0.58008 2.780545,0 5.293909,-0.0769 7.570313,-0.24219 a 7.2441726,7.2441726 0 0 0 0.09375,-0.008 c 0.651383,-0.0558 1.464785,-0.33875 2.261718,-0.64844 0.612378,0.26456 1.075452,0.31713 1.435547,0.4043 0.701491,0.1698 1.152032,0.21044 1.580078,0.24609 a 7.2441726,7.2441726 0 0 0 0.06055,0.004 c 1.465551,0.10989 2.817855,0.16992 4.087891,0.16992 1.691312,0 2.940674,-0.0227 4.130859,-0.12695 0.456708,-0.0368 0.945621,-0.0839 1.6875,-0.27344 0.470018,-0.12006 1.161108,-0.36521 1.972656,-0.83008 1.265553,0.6704 2.631509,1.08203 3.695313,1.08203 h 7.515625 c 1.051577,0 2.490269,-0.4826 3.878906,-1.23632 0.820651,0.49302 1.679635,0.93866 2.464844,1.0957 2.349241,0.46976 3.054144,0.28906 5.189453,0.28906 2.034231,0 2.903768,0.0658 4.628906,-0.16406 1.617348,-0.2155 3.937341,-1.23107 5.339844,-3.05274 1.402503,-1.82166 1.691406,-3.76958 1.691406,-5.09375 0,-1.15595 -0.02589,-2.74671 -0.07617,-4.85937 -0.04893,-2.07141 -0.07227,-3.61328 -0.07227,-4.54102 0,-0.74073 0.0217,-2.02204 0.07031,-3.74023 a 7.2441726,7.2441726 0 0 0 0,-0.002 c 0.05056,-1.80343 0.07813,-3.15986 0.07813,-4.17188 0,-3.89069 -2.012441,-8.321373 -5.289062,-10.726561 l 0.002,0.0039 c -2.852845,-2.096652 -6.327464,-2.919922 -9.623047,-2.919922 -2.62093,0 -5.12971,0.745369 -7.388672,1.861328 -2.290286,-1.243417 -4.891146,-1.861328 -7.394531,-1.861328 -1.910126,0 -3.814951,0.423404 -5.640625,1.068359 -1.011476,-0.505925 -2.162632,-0.871093 -3.289063,-0.871093 -1.626665,0 -2.766438,0.289016 -3.949218,0.626953 -0.963582,0.259764 -1.698755,0.427988 -1.232422,0.339844 0.04574,-0.01206 -0.555963,0.05702 -1.619141,0.15625 a 7.2441726,7.2441726 0 0 0 -0.03516,0.0039 c -1.205099,0.118536 -2.061961,0.118342 -3.820313,0.794922 -1.239993,-0.391835 -2.454183,-0.668696 -4.132812,-1.007813 -1.880872,-0.379791 -2.94283,-0.666015 -4.929688,-0.666015 -0.97789,0 -1.838319,0.181685 -2.597656,0.464843 -1.616729,-0.541771 -3.281658,-0.910156 -4.917969,-0.910156 -4.509178,0 -9.026889,1.591718 -12.474609,4.490235 -3.371238,-3.140898 -7.953226,-5.060547 -12.5546875,-5.060547 -2.334008,0 -4.655196,0.481607 -6.859375,1.267578 0.004418,-0.26468 0.008578,-0.589611 0.0332031,-1.242188 l -0.001953,0.02734 c 0.0351182,-0.842836 0.0585938,-1.522148 0.0585938,-2.160156 A 7.2441726,7.2441726 0 0 0 0.94335938,88.242188 C 0.92295733,87.895347 0.90934074,87.534609 0.76367188,86.84375 0.63723905,86.244121 1.0781006,85.042567 -1.265625,83.074219 l -0.027344,-0.02344 c -2.8442704,-2.831452 -3.7135889,-2.012346 -4.3398437,-2.09375 -0.6286462,-0.08171 -0.9792039,-0.08008 -1.3242187,-0.08008 z M 42.816406,95.132812 c 0.836419,0.516684 1.240657,1.048339 1.525391,1.429688 -0.451592,-0.528465 -0.993014,-0.975013 -1.525391,-1.429688 z m 14.046875,1.001954 c -0.141738,0.09375 0.02936,-0.01583 0,0 z M 6.3242188,102.54688 c 0.702194,0.28309 1.4391586,0.62178 2.1230468,1.2832 1.6209814,1.56772 2.0351564,3.68272 2.0351564,4.70508 0,0.16099 -0.195391,0.53326 -0.316406,0.87109 l -0.1738285,0.10937 c -0.5097927,0.25504 -0.7915662,0.3086 -0.9511719,0.3086 -0.314768,0 -0.2549999,-0.0354 -0.125,0.0273 a 7.2441726,7.2441726 0 0 0 -0.019531,-0.01 c 0.089908,0.043 0.3616432,0.33892 0.5898437,0.56836 -0.6593108,0.53964 -1.8910927,1.20312 -2.7265625,1.20312 -0.8525883,0 -2.2661185,-0.6831 -2.6816406,-1.12695 -0.3607096,-0.3853 -0.8671875,-1.56716 -0.8671875,-2.24805 0,-1.7641 0.8502125,-3.61655 1.7246094,-4.62305 0.5626503,-0.64765 0.9532811,-0.80024 1.3886719,-1.06835 z m 162.5449212,0 c 0.7022,0.28309 1.43915,0.62177 2.12305,1.2832 1.621,1.56775 2.03515,3.68277 2.03515,4.70508 0,0.16099 -0.19538,0.53325 -0.3164,0.87109 l -0.17383,0.10937 c -0.51087,0.25573 -0.78963,0.3086 -0.94922,0.3086 -0.31477,0 -0.26044,-0.0371 -0.12695,0.0273 a 7.2441726,7.2441726 0 0 0 -0.0195,-0.01 c 0.0899,0.043 0.36164,0.33892 0.58984,0.56836 -0.65932,0.53966 -1.8911,1.20312 -2.72656,1.20312 -0.85257,0 -2.26611,-0.68309 -2.68164,-1.12695 -0.36074,-0.38533 -0.86719,-1.56721 -0.86719,-2.24805 0,-1.76406 0.85021,-3.61653 1.72461,-4.62305 0.56265,-0.64766 0.95327,-0.80024 1.38867,-1.06835 z m 125.28906,0 c 0.69793,0.28146 1.42988,0.61715 2.11133,1.27343 1.62008,1.56025 2.04492,3.68188 2.04492,4.71485 0,0.16579 -0.19536,0.53388 -0.3164,0.87109 l -0.17188,0.10937 c -0.50978,0.25503 -0.79157,0.3086 -0.95117,0.3086 -0.31477,0 -0.25502,-0.0354 -0.125,0.0273 a 7.2441726,7.2441726 0 0 0 -0.0195,-0.01 c 0.0893,0.0428 0.36117,0.3386 0.58984,0.56836 -0.65932,0.53966 -1.8911,1.20312 -2.72656,1.20312 -0.8526,0 -2.27245,-0.68778 -2.68359,-1.12695 -0.35633,-0.38062 -0.86524,-1.55802 -0.86524,-2.24805 0,-1.76412 0.85021,-3.61655 1.72461,-4.62305 0.56265,-0.64765 0.95329,-0.80025 1.38867,-1.06835 z m -260.138669,6.0625 c 1.952912,-0.0217 0.234697,5.31891 1.769531,3.88476 -1.182373,2.08106 -5.343708,-0.94669 -3.517578,0.01 -0.392365,-0.45372 -0.708984,-1.41911 -0.708984,-1.53711 0,-0.0886 0.296804,-1.09665 0.691406,-1.50586 l 0.04687,-0.0469 c 0.438906,-0.44703 1.558679,-0.80468 1.71875,-0.80468 z m 215.378909,0.14843 c 0.58369,0 2.03136,0.70749 2.36133,1.10157 0.26211,0.32844 0.46875,1.07019 0.46875,1.15624 0,0.12008 -0.22266,0.87488 -0.46875,1.1836 -0.32711,0.39064 -1.77046,1.09961 -2.36133,1.09961 -0.59449,0 -2.08687,-0.72699 -2.47071,-1.18164 -0.17041,-0.23235 -0.40625,-0.91103 -0.40625,-1.10157 0,-0.0622 0.1882,-0.7868 0.45118,-1.11132 l 0.0332,-0.041 c 0.31113,-0.37824 1.76615,-1.10547 2.39258,-1.10547 z m -107.28321,14.26758 c -0.009,0.01 -0.0208,0.0202 -0.0176,0.0156 0.005,-0.006 0.0124,-0.01 0.0176,-0.0156 z m -123.859371,1.57617 c 0.0044,0.005 0.01121,0.008 0.01563,0.0137 0.004,0.005 0.0058,0.0109 0.0098,0.0156 z m 138.339841,1.13672 c 0.006,0.006 0.0137,0.008 0.0195,0.0137 0.005,0.005 0.008,0.0125 0.0137,0.0176 z" />
    <path
       id="path14"
       style="font-style:normal;font-variant:normal;font-weight:normal;font-stretch:normal;font-size:50.8px;line-height:1.25;font-family:'Berlin Sans FB Demi';-inkscape-font-specification:'Berlin Sans FB Demi';fill:#f9f9f9;fill-opacity:1;stroke:none;stroke-width:0.264583"
       d="m 218.26936,87.848899 -4.48965,0.520899 c -0.21497,0.03308 -0.98391,0.07442 -2.30683,0.124023 -0.99219,0.03307 -1.7446,0.124024 -2.25723,0.272852 -0.24805,0.08268 -0.37207,0.248047 -0.37207,0.496093 0,0.09922 0.0248,0.256316 0.0744,0.471289 0.21497,1.025261 0.3638,2.25723 0.44648,3.695899 0.0331,1.240234 0.0744,2.480469 0.12402,3.720703 0.11576,3.538803 0.17364,8.011913 0.17364,13.419333 0,1.30638 -0.008,3.27423 -0.0248,5.90352 -0.0165,2.61276 -0.0248,4.57233 -0.0248,5.87871 0,0.44649 0.29766,0.73587 0.89297,0.86816 0.59531,0.1323 1.57097,0.19844 2.92695,0.19844 2.36472,0 3.80339,-0.0331 4.31602,-0.0992 0.51263,-0.0661 0.76895,-0.40514 0.76895,-1.01699 0,-0.79374 -0.0165,-1.98438 -0.0496,-3.57188 -0.0331,-1.60403 -0.0496,-2.80293 -0.0496,-3.59667 v -6.12676 c 0,-0.62839 0.48782,-1.23197 1.46347,-1.81074 0.89297,-0.52917 1.67018,-0.79375 2.33164,-0.79375 1.96784,0 2.95176,0.96738 2.95176,2.90214 0,1.42214 -0.0248,3.56361 -0.0744,6.42442 -0.0496,2.8608 -0.0744,5.00227 -0.0744,6.42441 0,0.61185 0.27285,0.96738 0.81856,1.0666 0.71106,0.1323 1.97611,0.19844 3.79512,0.19844 1.88515,0 3.09231,-0.0331 3.62148,-0.0992 0.46302,-0.0661 0.69453,-0.3886 0.69453,-0.96738 l 0.0496,-17.11524 c 0,-2.06705 -0.76894,-3.6959 -2.30684,-4.88652 -1.42213,-1.107944 -3.19153,-1.661912 -5.3082,-1.661912 -1.2237,0 -2.48874,0.289388 -3.79512,0.868164 -0.87643,0.396877 -1.7942,0.934308 -2.75332,1.612308 -0.81029,0.57877 -1.23197,0.86816 -1.26504,0.86816 -0.16535,0 -0.24804,-0.16537 -0.24804,-0.49609 0,-2.166277 0.0496,-5.118037 0.14883,-8.855277 0,-0.380338 0.0331,-1.099674 0.0992,-2.158008 0.0661,-0.909505 0.0992,-1.628841 0.0992,-2.158007 0,-0.347266 -0.13229,-0.520899 -0.39687,-0.520899 z M -6.957198,88.121751 c -0.016536,0 -1.0996748,0.08268 -3.249414,0.248047 -4.001823,0.314192 -6.746875,0.471289 -8.235156,0.471289 -5.242057,0 -9.202539,-0.173633 -11.881445,-0.520899 -0.198437,-0.01654 -0.314193,-0.02479 -0.347265,-0.02479 -0.28112,0 -0.479558,0.620117 -0.595313,1.860351 -0.06615,0.777214 -0.124026,1.554427 -0.173633,2.331641 -0.03307,0.24805 -0.181901,0.950846 -0.446484,2.108398 -0.231511,1.058334 -0.347266,1.694987 -0.347266,1.909961 0,0.165365 0.132292,0.248047 0.396875,0.248047 1.967839,0 4.605404,-0.165364 7.912695,-0.496094 0.132291,4.464848 0.198437,7.342188 0.198437,8.632028 0,1.95131 -0.08268,4.87826 -0.248046,8.78086 -0.165364,3.90261 -0.248047,6.82956 -0.248047,8.78086 0,0.42995 0.23151,0.68626 0.694531,0.76895 0.859896,0.13229 2.356446,0.19843 4.489648,0.19843 1.91823,0 3.373438,-0.0661 4.365625,-0.19843 0.413414,-0.0496 0.644925,-0.091 0.694532,-0.12403 0.148828,-0.0827 0.223242,-0.28111 0.223242,-0.59531 0,-1.9513 -0.08268,-4.88652 -0.248047,-8.80566 -0.148829,-3.91914 -0.223242,-6.85436 -0.223242,-8.80567 0,-1.65364 0.04961,-4.57232 0.148828,-8.756051 4.349088,0.24805 6.8378252,0.37207 7.4662106,0.37207 0.3638021,0 0.5457031,-0.165364 0.5457031,-0.496093 0,-0.396875 -0.057878,-0.992188 -0.1736328,-1.785938 -0.099219,-0.810284 -0.1488281,-1.422135 -0.1488281,-1.835547 0,-0.363802 0.016536,-0.983916 0.049609,-1.860351 0.033073,-0.79375 0.049609,-1.413867 0.049609,-1.860352 -0.016536,-0.281117 -0.049609,-0.438213 -0.099219,-0.471289 -0.049609,-0.04961 -0.2397787,-0.07441 -0.5705078,-0.07441 z m 122.510348,0.248047 c -2.6789,0 -4.6054,0.06615 -5.77949,0.198437 -0.47955,0.06615 -0.71934,0.272852 -0.71934,0.620117 0,1.885157 0.0662,4.729427 0.19844,8.532813 0.14884,3.786845 0.22324,6.631115 0.22324,8.532815 0,1.81901 -0.0744,4.5558 -0.22324,8.21035 -0.13228,3.63802 -0.19844,6.36653 -0.19844,8.18555 0,0.38034 0.23979,0.5705 0.71934,0.5705 0.81029,0 2.02572,0.0248 3.64629,0.0744 1.63711,0.0496 2.86081,0.0744 3.67109,0.0744 4.31602,0 6.95358,-0.0165 7.9127,-0.0496 4.99401,-0.16536 8.87181,-1.84381 11.6334,-5.03535 3.12538,-3.57187 4.68808,-7.78867 4.68808,-12.65039 0,-2.6789 -0.57878,-5.28339 -1.73633,-7.813476 -1.20716,-2.678907 -2.85253,-4.7625 -4.93613,-6.250782 -2.21588,-1.5875 -5.28339,-2.579687 -9.20254,-2.976562 -1.50481,-0.148828 -4.80384,-0.223242 -9.89707,-0.223242 z m 34.4041,0.719336 c -1.32292,0 -2.45566,0.380338 -3.39824,1.141015 -1.02526,0.826823 -1.53789,1.885156 -1.53789,3.175 0,1.35599 0.49609,2.43086 1.48828,3.22461 0.90951,0.727604 2.05879,1.091406 3.44785,1.091406 3.24114,0 4.86172,-1.438672 4.86172,-4.316016 0,-1.273307 -0.50436,-2.323372 -1.51308,-3.150195 -0.94258,-0.777214 -2.0588,-1.16582 -3.34864,-1.16582 z m -27.33476,6.945312 c 2.77812,0 5.01054,0.917773 6.69726,2.75332 1.67018,1.769404 2.50528,4.051434 2.50528,6.846094 0,2.94349 -0.76895,5.31647 -2.30684,7.11895 -1.63711,1.90169 -3.88607,2.85253 -6.74687,2.85253 -2.64584,0 -3.96875,-0.35553 -3.96875,-1.0666 0,-0.97565 -0.0165,-2.42259 -0.0496,-4.34082 -0.0331,-1.93476 -0.0496,-3.3817 -0.0496,-4.34082 0,-0.97565 0.0165,-2.43913 0.0496,-4.39043 0.0331,-1.967836 0.0496,-3.439581 0.0496,-4.415232 0,-0.677995 1.2733,-1.016992 3.81992,-1.016992 z M 7.7271768,98.018821 c -3.7703125,0 -6.79648433,1.256771 -9.0785155,3.770309 -2.2158854,2.43087 -3.3238281,5.54799 -3.3238281,9.35137 0,3.9026 1.2402344,7.01973 3.7207031,9.35137 2.4143229,2.29857 5.5893228,3.44785 9.5249999,3.44785 4.2498698,0 7.3835288,-1.08314 9.4009768,-3.24941 0.248046,-0.26459 0.37207,-0.45476 0.37207,-0.57051 0,-0.41341 -0.413412,-1.3808 -1.240234,-2.90215 -0.810287,-1.52135 -1.389063,-2.36472 -1.736329,-2.53008 l -1.885156,1.19063 c -1.488281,0.79375 -2.968294,1.19062 -4.4400388,1.19062 -1.2236979,0 -2.3151041,-0.2315 -3.2742187,-0.69453 -1.1740885,-0.56224 -1.876888,-1.3808 -2.1083984,-2.45566 3.8695312,-0.29766 6.7799479,-0.55397 8.7312499,-0.76895 3.241145,-0.33073 4.952669,-0.51264 5.13457,-0.5457 1.074869,-0.23151 1.612305,-1.18235 1.612305,-2.85254 0,-3.19153 -1.107943,-5.94486 -3.323828,-8.25996 -2.215886,-2.315104 -4.911329,-3.472659 -8.0863282,-3.472659 z m 162.5451132,0 c -3.77031,0 -6.79649,1.256771 -9.07851,3.770309 -2.21589,2.43087 -3.32383,5.54799 -3.32383,9.35137 0,3.9026 1.24024,7.01973 3.7207,9.35137 2.41433,2.29857 5.58933,3.44785 9.525,3.44785 4.24987,0 7.38353,-1.08314 9.40098,-3.24941 0.24805,-0.26459 0.37207,-0.45476 0.37207,-0.57051 0,-0.41341 -0.41341,-1.3808 -1.24024,-2.90215 -0.81028,-1.52135 -1.38906,-2.36472 -1.73632,-2.53008 l -1.88516,1.19063 c -1.48828,0.79375 -2.96829,1.19062 -4.44004,1.19062 -1.2237,0 -2.31511,-0.2315 -3.27422,-0.69453 -1.17408,-0.56224 -1.87688,-1.3808 -2.1084,-2.45566 3.86954,-0.29766 6.77995,-0.55397 8.73125,-0.76895 3.24115,-0.33073 4.95267,-0.51264 5.13457,-0.5457 1.07488,-0.23151 1.61231,-1.18235 1.61231,-2.85254 0,-3.19153 -1.10794,-5.94486 -3.32383,-8.25996 -2.21589,-2.315104 -4.91133,-3.472659 -8.08633,-3.472659 z m 125.28848,0 c -3.77031,0 -6.79648,1.256771 -9.07851,3.770309 -2.21589,2.43087 -3.32383,5.54799 -3.32383,9.35137 0,3.9026 1.24023,7.01973 3.7207,9.35137 2.41433,2.29857 5.58933,3.44785 9.525,3.44785 4.24987,0 7.38352,-1.08314 9.40097,-3.24941 0.24804,-0.26459 0.37208,-0.45476 0.37208,-0.57051 0,-0.41341 -0.41341,-1.3808 -1.24024,-2.90215 -0.81028,-1.52135 -1.38906,-2.36472 -1.73632,-2.53008 l -1.88516,1.19063 c -1.48828,0.79375 -2.96831,1.19062 -4.44005,1.19062 -1.2237,0 -2.31511,-0.2315 -3.27422,-0.69453 -1.17409,-0.56224 -1.87688,-1.3808 -2.10839,-2.45566 3.86954,-0.29766 6.77995,-0.55397 8.73125,-0.76895 3.24115,-0.33073 4.95266,-0.51264 5.13456,-0.5457 1.07487,-0.23151 1.61232,-1.18235 1.61232,-2.85254 0,-3.19153 -1.10794,-5.94486 -3.32383,-8.25996 -2.21588,-2.315104 -4.91133,-3.472659 -8.08633,-3.472659 z m -46.21113,0.37207 c -3.83647,0 -6.87917,1.198891 -9.12813,3.596679 -2.24896,2.38125 -3.37344,5.49011 -3.37344,9.32656 0,3.63802 1.17409,6.61458 3.52227,8.92969 2.34817,2.3151 5.34127,3.47266 8.9793,3.47266 3.75377,0 6.77994,-1.17409 9.07851,-3.52227 2.31511,-2.34818 3.47266,-5.40742 3.47266,-9.17773 0,-3.73724 -1.15755,-6.77168 -3.47266,-9.10332 -2.31511,-2.348178 -5.34128,-3.522269 -9.07851,-3.522269 z M 32.755107,98.589329 c -3.73724,0 -6.68073,1.207161 -8.830469,3.621481 -2.067058,2.33164 -3.100586,5.40743 -3.100586,9.22735 0,3.30729 1.000456,6.15156 3.001367,8.53281 2.116666,2.54662 4.787305,3.81992 8.011914,3.81992 2.116667,0 4.101042,-0.93431 5.953125,-2.80293 0.214974,-0.21498 0.388607,-0.35554 0.520899,-0.42168 0.148828,0.0165 0.272851,0.50437 0.37207,1.46348 0.115755,0.94258 0.330729,1.41387 0.644922,1.41387 2.645833,0 4.99401,-0.0744 7.044531,-0.22325 0.578776,-0.0496 0.868164,-0.40515 0.868164,-1.0666 0,-1.25677 -0.07441,-3.14193 -0.223242,-5.65547 -0.148828,-2.51354 -0.223242,-4.40696 -0.223242,-5.68027 0,-3.34036 0.264583,-6.50709 0.79375,-9.5002 0.04961,-0.28113 0.07441,-0.45476 0.07441,-0.52089 0,-0.16537 -0.124024,-0.29767 -0.372071,-0.39688 -0.711067,-0.23151 -1.885156,-0.512629 -3.522265,-0.843358 -1.719792,-0.347266 -2.885612,-0.520899 -3.497461,-0.520899 -0.264583,0 -0.496094,0.405143 -0.694531,1.215427 -0.181901,0.79375 -0.347266,1.19063 -0.496094,1.19063 -0.04961,0 -0.107487,-0.0413 -0.173633,-0.12403 -1.504818,-1.819006 -3.555338,-2.728511 -6.151562,-2.728511 z m 36.165234,0 c -1.488282,0 -2.869076,0.305924 -4.142383,0.917773 -0.859896,0.429951 -2.033984,1.223698 -3.522266,2.381248 -0.214974,0.16538 -0.405143,0.28114 -0.570508,0.34727 -0.115752,0 -0.181898,-0.57051 -0.198437,-1.71153 -0.01654,-1.157548 -0.181901,-1.736324 -0.496094,-1.736324 -0.496094,0 -1.149284,0.115756 -1.95957,0.347266 -1.141016,0.314193 -1.794206,0.487825 -1.95957,0.520898 -0.231511,0.03307 -0.967383,0.107487 -2.207618,0.223243 -1.008723,0.09922 -1.694986,0.223247 -2.058789,0.372067 -0.23151,0.0992 -0.347265,0.28939 -0.347265,0.57051 0,0.0992 0.01654,0.24804 0.04961,0.44649 0.396875,3.38997 0.595313,6.44095 0.595313,9.15292 0,1.32292 -0.0083,3.3073 -0.02479,5.95313 -0.01654,2.6293 -0.02479,4.60541 -0.02479,5.92832 0,0.41341 0.03307,0.66146 0.09922,0.74414 0.08268,0.0827 0.32246,0.14057 0.719335,0.17363 1.322917,0.0992 2.505274,0.14883 3.547071,0.14883 1.604036,0 2.778125,-0.0331 3.522265,-0.0992 0.413412,-0.0331 0.669727,-0.0992 0.768946,-0.19843 0.09922,-0.0992 0.148828,-0.35554 0.148828,-0.76895 0,-1.48828 -0.0083,-3.72897 -0.02479,-6.72207 -0.01654,-2.99309 -0.02479,-5.24206 -0.02479,-6.74688 0,-0.67799 0.463021,-1.32291 1.389062,-1.93476 0.84336,-0.56224 1.628841,-0.84336 2.356446,-0.84336 1.802474,0 2.70371,1.18236 2.70371,3.54707 0,0.62839 0.01654,1.5627 0.04961,2.80293 0.03307,1.24024 0.04961,2.16628 0.04961,2.77812 0,0.79375 -0.02482,1.96785 -0.07441,3.52227 -0.04961,1.55444 -0.07441,2.72025 -0.07441,3.49746 0,0.678 0.231511,1.01699 0.694531,1.01699 h 7.515821 c 0.479557,0 0.719335,-0.27284 0.719335,-0.81855 0,-0.79375 -0.02482,-1.9761 -0.07441,-3.54707 -0.04961,-1.5875 -0.07441,-2.76986 -0.07441,-3.54707 0,-3.37343 0.03307,-5.40742 0.09922,-6.10196 0.08268,-0.79375 0.504362,-1.51308 1.265039,-2.158 0.777214,-0.66146 1.554427,-0.99219 2.331641,-0.99219 1.769401,0 2.703711,0.98392 2.802929,2.95176 0.06615,1.2237 0.09922,3.28248 0.09922,6.17636 0,0.76068 -0.02482,1.90169 -0.07441,3.42305 -0.04961,1.50482 -0.07441,2.63756 -0.07441,3.39824 0,0.71107 0.248047,1.11621 0.744141,1.21543 0.496093,0.0992 1.752864,0.14883 3.770312,0.14883 1.951302,0 3.175,-0.0331 3.671094,-0.0992 0.496094,-0.0661 0.74414,-0.3886 0.74414,-0.96738 0,-1.04179 -0.02482,-2.60449 -0.07441,-4.68809 -0.04961,-2.10013 -0.07441,-3.67109 -0.07441,-4.71289 0,-0.87643 0.02482,-2.19107 0.07441,-3.94394 0.04961,-1.7694 0.07441,-3.09232 0.07441,-3.96875 0,-2.11667 -0.777213,-3.74551 -2.33164,-4.88653 -1.372526,-1.008719 -3.150195,-1.513081 -5.333008,-1.513081 -1.455208,0 -2.951758,0.405143 -4.489648,1.215429 -1.537891,0.810282 -2.745052,1.810742 -3.621485,3.001372 -0.396875,-1.37253 -1.265039,-2.43913 -2.604492,-3.199809 -1.190625,-0.677995 -2.546614,-1.016992 -4.067968,-1.016992 z m 203.646469,0.148828 c -0.0827,0 -1.43039,0.256315 -4.04315,0.768945 -1.75286,0.264584 -3.08406,0.446485 -3.99356,0.545708 -0.24804,0.0827 -0.37207,0.24804 -0.37207,0.49609 0,0.0992 0.0165,0.22324 0.0496,0.37207 0.71108,2.51355 1.0666,5.71335 1.0666,9.59941 0,1.32292 -0.008,3.30729 -0.0249,5.95313 -0.0164,2.6293 -0.0249,4.60541 -0.0249,5.92832 0,0.47957 0.27287,0.75242 0.81857,0.81855 0.94258,0.0992 2.19935,0.14883 3.77032,0.14883 1.6371,0 2.85252,-0.0331 3.64627,-0.0992 0.5457,-0.0496 0.81857,-0.27285 0.81857,-0.66972 0,-0.46302 -0.0331,-1.16582 -0.0992,-2.1084 -0.0661,-0.95911 -0.0992,-1.67845 -0.0992,-2.15801 0,-0.71107 -0.0164,-1.78594 -0.0496,-3.22461 -0.0164,-1.45521 -0.0249,-2.53835 -0.0249,-3.24941 0,-1.30638 0.24805,-2.17455 0.74414,-2.6045 0.4961,-0.42994 1.43042,-0.64492 2.80294,-0.64492 0.29766,0 0.74415,0.0248 1.33946,0.0744 0.61185,0.0331 1.07487,0.0496 1.38906,0.0496 0.71107,0 1.06659,-0.32247 1.06659,-0.96739 0,-0.31419 -0.0164,-0.95911 -0.0496,-1.93476 -0.0164,-0.79375 -0.0249,-1.4304 -0.0249,-1.90996 0.0164,-0.41341 0.0744,-1.09141 0.17362,-2.03399 0.0992,-0.87643 0.14883,-1.55442 0.14883,-2.033982 0,-0.396872 -0.46302,-0.595313 -1.38907,-0.595313 -1.47174,0 -3.00135,0.438217 -4.58885,1.314645 -1.44359,0.78194 -2.13228,1.20707 -2.07171,1.27796 -0.19437,-0.0594 -0.3311,-0.5723 -0.40876,-1.55081 -0.0827,-1.041795 -0.27286,-1.562693 -0.57052,-1.562693 z m -126.97518,0.868164 c -0.44649,0 -0.66973,0.165365 -0.66973,0.496089 0,0.0827 0.0165,0.25632 0.0496,0.5209 0.36381,2.77813 0.5457,6.51537 0.5457,11.21172 0,1.15755 -0.0248,2.88561 -0.0744,5.18418 -0.0496,2.28203 -0.0744,3.99355 -0.0744,5.13457 0,0.42996 0.0165,0.67801 0.0496,0.74414 0.0827,0.14884 0.30592,0.25633 0.66972,0.32246 0.56223,0.0992 1.83554,0.14883 3.81992,0.14883 1.96784,0 3.23288,-0.0496 3.79512,-0.14883 0.41342,-0.0661 0.62012,-0.27285 0.62012,-0.62011 0,-1.19063 -0.0248,-2.97657 -0.0744,-5.35782 -0.0496,-2.39778 -0.0744,-4.20026 -0.0744,-5.40742 0,-4.24987 0.1819,-7.98711 0.5457,-11.21172 0.0331,-0.24806 0.0496,-0.40515 0.0496,-0.47129 0,-0.330725 -0.19843,-0.49609 -0.59531,-0.49609 -0.47955,0 -1.1989,0.04134 -2.15801,0.124024 -0.95912,0.08268 -1.67845,0.124023 -2.15801,0.124023 -0.47956,0 -1.19889,-0.04961 -2.158,-0.148828 -0.94258,-0.09922 -1.64538,-0.148828 -2.1084,-0.148828 z m 38.49687,0 c -0.57877,0 -0.86816,0.214974 -0.86816,0.644919 v 4.36563 c 0,0.33073 0.91777,1.39733 2.75332,3.1998 1.14101,1.10794 2.2903,2.21589 3.44785,3.32383 -2.51354,2.71197 -4.41523,4.7377 -5.70508,6.07715 -0.29765,0.33073 -0.44648,0.63665 -0.44648,0.91777 0,0.4961 -0.008,1.24024 -0.0248,2.23242 -0.0165,0.97566 -0.0248,1.70326 -0.0248,2.18282 0,0.57878 1.30638,0.86816 3.91914,0.86816 1.24023,0 2.14974,-0.0661 2.72851,-0.19844 0.39687,-0.0827 0.7028,-0.27285 0.91778,-0.5705 2.29856,-2.91042 3.65456,-4.61368 4.06796,-5.10977 1.65365,2.29858 2.88562,4.02663 3.6959,5.18418 0.41342,0.29767 0.71934,0.46303 0.91778,0.49609 0.77721,0.1323 1.7446,0.19844 2.90214,0.19844 1.09141,0 2.12494,-0.0661 3.10059,-0.19844 0.54571,-0.0827 0.81855,-0.30592 0.81855,-0.66972 v -4.36563 c 0,-0.29766 -0.14056,-0.60358 -0.42167,-0.91777 -2.46394,-2.67891 -4.32429,-4.67155 -5.58106,-5.97793 2.46393,-2.59622 4.32428,-4.53099 5.58106,-5.8043 0.28111,-0.26458 0.42167,-0.55397 0.42167,-0.86816 v -4.36563 c 0,-0.429945 -0.28938,-0.644919 -0.86816,-0.644919 -0.69453,0 -1.72806,0.03307 -3.10059,0.09922 -1.37252,0.06615 -2.40605,0.09922 -3.10058,0.09922 -0.3638,0 -0.66973,0.165365 -0.91777,0.496089 -0.87644,1.25677 -2.0588,2.7864 -3.54707,4.58887 -1.63712,-1.85208 -2.91042,-3.38171 -3.81993,-4.58887 -0.28112,-0.363797 -0.58704,-0.545698 -0.91777,-0.545698 -0.66146,0 -1.65365,-0.02482 -2.97656,-0.07441 -1.30638,-0.04961 -2.2903,-0.07441 -2.95176,-0.07441 z M 6.759794,104.36882 c 1.0087239,0 1.876888,0.38861 2.6044921,1.16582 0.7276039,0.77721 1.0914059,1.67845 1.0914059,2.70371 0,0.1819 -0.272851,0.3142 -0.8185543,0.39688 -2.5796875,0.38034 -4.4813801,0.5705 -5.705078,0.5705 -0.4630209,0 -0.6945313,-0.22323 -0.6945313,-0.66972 0,-1.09141 0.3141927,-2.04225 0.9425781,-2.85254 0.6779948,-0.87642 1.5378906,-1.31465 2.5796875,-1.31465 z m 162.545116,0 c 1.00873,0 1.87689,0.38861 2.60449,1.16582 0.72761,0.77721 1.09141,1.67845 1.09141,2.70371 0,0.1819 -0.27285,0.3142 -0.81856,0.39688 -2.57968,0.38034 -4.48138,0.5705 -5.70507,0.5705 -0.46303,0 -0.69454,-0.22323 -0.69454,-0.66972 0,-1.09141 0.31419,-2.04225 0.94258,-2.85254 0.67799,-0.87642 1.53789,-1.31465 2.57969,-1.31465 z m 125.28847,0 c 1.00872,0 1.8769,0.38861 2.6045,1.16582 0.72761,0.77721 1.09141,1.67845 1.09141,2.70371 0,0.1819 -0.27287,0.3142 -0.81857,0.39688 -2.57969,0.38034 -4.48138,0.5705 -5.70508,0.5705 -0.46302,0 -0.69453,-0.22323 -0.69453,-0.66972 0,-1.09141 0.31419,-2.04225 0.94258,-2.85254 0.67799,-0.87642 1.53789,-1.31465 2.57969,-1.31465 z m -45.19414,1.68672 c 1.28985,0 2.33991,0.50436 3.1502,1.51309 0.81029,0.99218 1.21543,2.14147 1.21543,3.44785 0,1.33945 -0.38861,2.48874 -1.16582,3.44785 -0.84336,1.02526 -1.90996,1.53789 -3.19981,1.53789 -1.30638,0 -2.38125,-0.51263 -3.2246,-1.53789 -0.79376,-0.95911 -1.19063,-2.1084 -1.19063,-3.44785 0,-1.32291 0.39687,-2.46393 1.19063,-3.42305 0.84335,-1.02526 1.91822,-1.53789 3.2246,-1.53789 z m -215.379094,0.0496 c 1.422135,0 2.571419,0.46301 3.447851,1.38906 0.892969,0.9095 1.339453,2.06706 1.339453,3.47266 0,1.42214 -0.446484,2.59622 -1.339453,3.52226 -0.892968,0.90951 -2.042252,1.36426 -3.447851,1.36426 -1.322917,0 -2.447396,-0.47955 -3.373438,-1.43867 -0.926041,-0.95911 -1.389062,-2.1084 -1.389062,-3.44785 0,-1.42214 0.438216,-2.58796 1.314648,-3.49746 0.876432,-0.90951 2.025716,-1.36426 3.447852,-1.36426 z" />
  </g>
</svg>
